<?xml version="1.0" encoding="UTF-8" standalone="no"?>
<svg
   xmlns:dc="http://purl.org/dc/elements/1.1/"
   xmlns:cc="http://creativecommons.org/ns#"
   xmlns:rdf="http://www.w3.org/1999/02/22-rdf-syntax-ns#"
   xmlns:svg="http://www.w3.org/2000/svg"
   xmlns="http://www.w3.org/2000/svg"
   viewBox="0 0 213.02499 182.41251"
   height="182.41251"
   width="213.02499"
   xml:space="preserve"
   version="1.1"
   id="svg4155"><metadata
     id="metadata4161"><rdf:RDF><cc:Work
         rdf:about=""><dc:format>image/svg+xml</dc:format><dc:type
           rdf:resource="http://purl.org/dc/dcmitype/StillImage" /><dc:title></dc:title></cc:Work></rdf:RDF></metadata><defs
     id="defs4159" /><g
     transform="matrix(1.25,0,0,-1.25,0,182.4125)"
     id="g4163"><path
       d="m 99.3387,106.717 c 0.1394,0.083 0.3933,0.2 0.5867,0.2 0.1966,0 0.3336,-0.083 0.3336,-0.305 0,-0.867 -3.6762,-4.796 -5.2652,-4.797 -0.1387,0 -0.4454,0.028 -0.6668,0.362 1.282,1.562 3.1472,3.263 5.0117,4.54 z m 4.0813,11.37 c -2.505,2.006 -2.59,1.677 -2.95,1.677 -0.5602,0 -13.2055,-0.788 -26.1864,-0.788 -5.5145,0 -9.8391,0.517 -12.7156,-0.723 -7.225,-3.119 -8.3852,-12.63 -2.3852,-12.427 6.3188,0.218 9.5844,3.374 11.7074,6.696 0.659,1.033 0.2692,1.413 -0.3422,0.651 -1.5789,-1.957 -4.2128,-4.206 -7.0996,-5.239 -6.8285,-2.45 -4.35,7.69 0.3676,8.996 3.7473,1.038 9.9981,-0.762 15.8981,-1.796 0,0 -0.4453,-0.311 -0.6707,-0.477 -0.5016,-0.39 -2.9528,-2.535 -7.2145,-6.653 -2.5363,-2.456 -7.5793,-7.3 -7.5793,-9.0575 0,-0.6387 1.9231,-3.9555 3.0391,-3.9555 0.4187,0 0.1386,0.8945 2.314,3.7016 3.6504,4.7394 9.2731,10.2304 11.502,12.3964 1.8988,1.84 4.4316,3.902 5.2953,3.902 0.7121,0 1.7063,0.027 2.834,0.076 -4.4395,-3.988 -11.7,-10.689 -15.168,-15.758 -0.166,-0.2492 -0.2504,-0.4996 -0.2504,-0.6383 0,-1.0269 1.8399,-2.5059 2.3684,-2.5059 0.3066,0 0.7805,1.1114 1.0043,1.3622 3.8746,4.734 6.3258,6.823 8.4969,7.747 -1.8899,-1.869 -4.0379,-3.931 -4.0379,-5.6853 0,-1.3891 0.8109,-3.3387 2.3949,-3.3387 1.3074,0 4.1351,2.0496 5.8285,3.6098 0.1477,-1.1774 2.6563,-3.866 3.8457,-3.866 2.7297,0 5.4836,1.955 7.5186,3.8164 1.143,1.0338 2.254,2.3158 2.254,2.6228 0,0.105 -0.025,0.278 -0.243,0.278 -0.258,0 -2.931,-2.479 -8.0257,-4.3505 -0.3398,-0.105 -0.948,-0.2777 -1.4492,-0.2777 -0.8613,0 -1.0898,0.5879 -1.0898,1.0332 0,0.4996 0.3105,1.199 0.839,2.006 0.6113,-0.646 1.4481,-0.979 2.034,-0.979 2.0871,0 6.6827,3.789 6.6827,6.467 0,0.358 -0.084,0.834 -1.082,1.752 -0.703,0.782 -1.4784,1.367 -2.0636,1.367 -1.0613,0 -2.7625,-0.89 -4.9883,-2.895 -1.1355,-1.023 -2.2273,-2.128 -3.0242,-3.322 -0.2844,-0.433 -1.2531,-1.806 -2.1914,-2.529 -1.6145,-1.2521 -3.343,-2.3951 -3.8984,-2.3951 -0.1981,0 -0.3637,0.1047 -0.3637,0.3875 0,1.4226 4.2621,4.7616 5.598,5.9066 0.4746,0.417 0.5879,0.556 0.5879,0.89 0,1.145 -1.6164,2.034 -2.4816,2.034 -1.452,0 -2.507,-0.666 -4.3195,-1.555 0.7078,0.894 3.3519,2.767 7.1398,6.368 1.1809,1.116 2.6445,2.283 4.5773,2.822 2.536,0.183 5.1007,0.402 7.1387,0.638 0.724,0.085 1.894,0.334 1.894,0.668 0,0.451 -0.978,1.033 -1.34,1.34"
       style="fill:#ffffff;fill-opacity:1;fill-rule:nonzero;stroke:none"
       id="path4167" /><path
       d="m 90.4723,54.7945 5.716,0 c 1.0586,0 1.4597,-0.073 1.6758,-0.2898 0.3281,-0.3664 0.4062,-0.9152 0.4062,-2.2277 0,-1.3125 -0.0781,-1.8633 -0.4062,-2.2223 -0.2168,-0.2192 -0.6172,-0.2953 -1.6758,-0.2953 l -5.716,0 0,5.0351 z m -26.8106,-6.823 1.8856,5.9109 1.7871,0 1.8347,-5.9109 -5.5074,0 z m 60.8293,6.75 c 1.647,0 2.266,-0.1082 2.631,-0.4727 0.401,-0.4062 0.546,-1.4621 0.546,-6.6066 0,-5.1051 -0.145,-6.1953 -0.546,-6.6012 -0.364,-0.3601 -0.983,-0.4711 -2.631,-0.4711 l -5.943,0 -0.071,14.1516 6.014,0 z m -31.2433,-14.1516 -2.7735,0 0,3.941 4.2863,0 5.6565,-9.6308 25.286,0 c 3.681,0 5.654,0.4758 7.185,2.0097 1.746,1.7461 2.662,4.3743 2.662,10.7497 0,6.3835 -0.916,9.0117 -2.662,10.7625 -1.531,1.5355 -3.504,2.0078 -7.185,2.0078 l -17.402,0 0,-5.6903 2.698,0 0,-14.1515 -5.142,0 -3.867,6.5625 c 2.954,0.5832 4.157,1.6836 4.157,6.2004 0,3.1796 -0.361,4.5976 -1.492,5.7304 -0.986,0.9844 -2.411,1.3504 -4.595,1.3504 l -19.76,0 0,-5.6902 2.6973,0 0,-14.1516 -3.7985,0 -6.7367,19.9524 -11.4836,0 -6.764,-19.9524 -2.9153,0 0,-5.6879 12.7235,0 0,5.5782 -2.3344,0 0.5844,2.1878 8.2824,0 0.6195,-2.1878 -2.334,0 0,-5.5782 24.4071,0 0,5.6879"
       style="fill:#ffffff;fill-opacity:1;fill-rule:nonzero;stroke:none"
       id="path4169" /><path
       d="m 97.6316,70.6891 c -0.2238,-0.2235 -0.5851,-0.295 -1.6789,-0.295 l -3.6797,0 c -1.0925,0 -1.4531,0.0715 -1.6765,0.295 -0.2578,0.2539 -0.4406,1.0214 -0.4406,6.6386 0,5.5782 0.1847,6.3797 0.4406,6.6356 0.2234,0.2152 0.5828,0.293 1.6765,0.293 l 3.6797,0 c 1.093,0 1.4551,-0.0778 1.6789,-0.293 0.2559,-0.2559 0.4383,-1.0574 0.4383,-6.6356 0,-5.5816 -0.1844,-6.3828 -0.4383,-6.6386 z m 1.2383,19.4015 -9.5156,0 c -2.6594,0 -3.7535,-0.4 -4.7359,-1.389 -1.5028,-1.4571 -2.336,-4.3352 -2.336,-11.3758 0,-7.0418 0.8332,-9.9246 2.336,-11.3797 0.9804,-0.9895 2.0765,-1.3875 4.7359,-1.3875 l 9.5156,0 c 2.6591,0 3.7591,0.398 4.7381,1.3875 1.502,1.4551 2.338,4.3379 2.338,11.3797 0,7.0422 -0.836,9.9207 -2.338,11.3758 -0.979,0.989 -2.079,1.389 -4.7381,1.389"
       style="fill:#ffffff;fill-opacity:1;fill-rule:nonzero;stroke:none"
       id="path4171" /><path
       d="m 54.1246,54.7215 2.5899,0 0,5.6902 -12.7676,0 0,-5.6172 2.2261,0 -3.03,-4.3808 -0.1461,0 -2.8051,4.3808 2.2227,0 0,5.6172 -13.254,0 0,-5.6902 2.5305,0 7.4063,-10.1805 0,-3.973 -2.8813,0 0,-5.6879 13.2403,0 0,5.6898 -2.8833,0 0,4.0821 7.5516,10.0695"
       style="fill:#ffffff;fill-opacity:1;fill-rule:nonzero;stroke:none"
       id="path4173" /><path
       d="m 51.2992,70.2488 -6.8742,0 0,14.1532 6.8742,0 0,5.6902 -22.1406,0 0,-5.6902 6.8793,0 0,-14.1532 -6.8793,0 0,-5.6886 22.1406,0 0,5.6886"
       style="fill:#ffffff;fill-opacity:1;fill-rule:nonzero;stroke:none"
       id="path4175" /><path
       d="m 124.972,84.4055 2.516,0 0,-7.3692 -8.487,13.0578 -11.607,0 0,-5.6906 2.697,0 0,-14.1527 -2.697,0 0,-5.6883 12.176,0 -0.035,5.6883 -2.695,0 0,8.8609 8.992,-14.5515 8.398,0 0,19.8418 2.636,0 0,5.6933 -11.894,0 0,-5.6898"
       style="fill:#ffffff;fill-opacity:1;fill-rule:nonzero;stroke:none"
       id="path4177" /><path
       d="m 63.5297,84.473 5.7101,0 c 1.0594,0 1.4622,-0.071 1.6793,-0.2945 0.3266,-0.3609 0.4012,-0.9047 0.4012,-2.2226 0,-1.311 -0.0746,-1.8618 -0.4012,-2.2227 -0.2171,-0.2219 -0.6187,-0.293 -1.6773,-0.2945 l -5.7121,0 0,5.0343 z m 4.2859,-10.2839 5.6496,-9.6289 7.8852,0 0,5.6886 -2.441,0 -3.8656,6.5672 c 2.9527,0.5848 4.155,1.6723 4.155,6.202 0,3.1726 -0.3605,4.5961 -1.4953,5.7289 -0.9824,0.9773 -2.4074,1.3453 -4.5945,1.3453 l -19.7555,0 0,-5.6902 2.6957,0 0,-14.1532 -2.6957,0 0,-5.6886 12.9461,0 0,5.6886 -2.7699,0 0,3.9403 4.2859,0"
       style="fill:#ffffff;fill-opacity:1;fill-rule:nonzero;stroke:none"
       id="path4179" /><path
       d="m 65.5473,53.8824 -1.8856,-5.9109 5.5074,0 -1.8347,5.9109 -1.7871,0"
       style="fill:#263241;fill-opacity:1;fill-rule:nonzero;stroke:none"
       id="path4181" /><path
       d="m 70.9191,79.7332 c 0.3266,0.3609 0.4012,0.9117 0.4012,2.2227 0,1.3179 -0.0746,1.8617 -0.4012,2.2226 -0.2171,0.2235 -0.6199,0.2945 -1.6793,0.2945 l -5.7101,0 0,-5.0343 5.7121,0 c 1.0586,0.0015 1.4602,0.0726 1.6773,0.2945"
       style="fill:#263241;fill-opacity:1;fill-rule:nonzero;stroke:none"
       id="path4183" /><path
       d="m 94.9938,101.815 c 1.589,0.001 5.2652,3.93 5.2652,4.797 0,0.222 -0.137,0.305 -0.3336,0.305 -0.1934,0 -0.4473,-0.117 -0.5867,-0.2 -1.8645,-1.277 -3.7297,-2.978 -5.0117,-4.54 0.2214,-0.334 0.5281,-0.362 0.6668,-0.362"
       style="fill:#263241;fill-opacity:1;fill-rule:nonzero;stroke:none"
       id="path4185" /><path
       d="m 95.9527,84.2563 -3.6797,0 c -1.0937,0 -1.4531,-0.0778 -1.6765,-0.293 -0.2559,-0.2559 -0.4406,-1.0574 -0.4406,-6.6356 0,-5.6172 0.1828,-6.3847 0.4406,-6.6386 0.2234,-0.2235 0.584,-0.295 1.6765,-0.295 l 3.6797,0 c 1.0938,0 1.4551,0.0715 1.6789,0.295 0.2539,0.2558 0.4383,1.057 0.4383,6.6386 0,5.5782 -0.1824,6.3797 -0.4383,6.6356 -0.2238,0.2152 -0.5859,0.293 -1.6789,0.293"
       style="fill:#263241;fill-opacity:1;fill-rule:nonzero;stroke:none"
       id="path4187" /><path
       d="m 97.8641,50.0547 c 0.3281,0.359 0.4062,0.9098 0.4062,2.2223 0,1.3125 -0.0781,1.8613 -0.4062,2.2277 -0.2161,0.2168 -0.6172,0.2898 -1.6758,0.2898 l -5.716,0 0,-5.0351 5.716,0 c 1.0586,0 1.459,0.0761 1.6758,0.2953"
       style="fill:#263241;fill-opacity:1;fill-rule:nonzero;stroke:none"
       id="path4189" /><path
       d="m 124.491,40.5699 c 1.648,0 2.267,0.111 2.631,0.4711 0.401,0.4059 0.546,1.4961 0.546,6.6012 0,5.1445 -0.145,6.2004 -0.546,6.6066 -0.365,0.3645 -0.984,0.4727 -2.631,0.4727 l -6.014,0 0.071,-14.1516 5.943,0"
       style="fill:#263241;fill-opacity:1;fill-rule:nonzero;stroke:none"
       id="path4191" /><path
       d="m 136.866,84.402 -2.636,0 0,-19.8418 -8.398,0 -8.992,14.5515 0,-8.8609 2.695,0 0.035,-5.6883 -12.176,0 0,5.6883 2.697,0 0,14.1527 -2.697,0 0,5.6906 11.607,0 8.487,-13.0578 0,7.3692 -2.516,0 0,5.6898 11.894,0 0,-5.6933 z M 29.1586,70.2488 l 6.8793,0 0,14.1532 -6.8793,0 0,5.6902 22.1406,0 0,-5.6902 -6.8742,0 0,-14.1532 6.8742,0 0,-5.6886 -22.1406,0 0,5.6886 z m 20.2977,-29.6789 0,-5.6898 -13.2403,0 0,5.6879 2.8813,0 0,3.973 -7.4063,10.1805 -2.5305,0 0,5.6902 13.254,0 0,-5.6172 -2.2227,0 2.8051,-4.3808 0.1461,0 3.03,4.3808 -2.2261,0 0,5.6172 12.7676,0 0,-5.6902 -2.5899,0 -7.5516,-10.0695 0,-4.0821 2.8833,0 z m 16.8433,29.6789 0,-5.6886 -12.9461,0 0,5.6886 2.6957,0 0,14.1532 -2.6957,0 0,5.6902 19.7555,0 c 2.1871,0 3.6121,-0.368 4.5945,-1.3453 1.1348,-1.1328 1.4953,-2.5563 1.4953,-5.7289 0,-4.5297 -1.2023,-5.6172 -4.155,-6.202 l 3.8656,-6.5672 2.441,0 0,-5.6886 -7.8852,0 -5.6496,9.6289 -4.2859,0 0,-3.9403 2.7699,0 z m 39.6464,7.077 c 0,-7.0418 -0.836,-9.9246 -2.338,-11.3797 -0.979,-0.9895 -2.079,-1.3875 -4.7381,-1.3875 l -9.5156,0 c -2.6594,0 -3.7555,0.398 -4.7359,1.3875 -1.5028,1.4551 -2.336,4.3379 -2.336,11.3797 0,7.0406 0.8332,9.9187 2.336,11.3758 0.9824,0.989 2.0765,1.389 4.7359,1.389 l 9.5156,0 c 2.6591,0 3.7591,-0.4 4.7381,-1.389 1.502,-1.4551 2.338,-4.3336 2.338,-11.3758 z m -3.08,38.7532 c -2.038,-0.236 -4.6027,-0.455 -7.1387,-0.638 -1.9328,-0.539 -3.3964,-1.706 -4.5773,-2.822 -3.7879,-3.601 -6.432,-5.474 -7.1398,-6.368 1.8125,0.889 2.8675,1.555 4.3195,1.555 0.8652,0 2.4816,-0.889 2.4816,-2.034 0,-0.334 -0.1133,-0.473 -0.5879,-0.89 -1.3359,-1.145 -5.598,-4.484 -5.598,-5.9066 0,-0.2828 0.1656,-0.3875 0.3637,-0.3875 0.5554,0 2.2839,1.143 3.8984,2.3951 0.9383,0.723 1.907,2.096 2.1914,2.529 0.7969,1.194 1.8887,2.299 3.0242,3.322 2.2258,2.005 3.927,2.895 4.9883,2.895 0.5852,0 1.3606,-0.585 2.0636,-1.367 0.998,-0.918 1.082,-1.394 1.082,-1.752 0,-2.678 -4.5956,-6.467 -6.6827,-6.467 -0.5859,0 -1.4227,0.333 -2.034,0.979 -0.5285,-0.807 -0.839,-1.5064 -0.839,-2.006 0,-0.4453 0.2285,-1.0332 1.0898,-1.0332 0.5012,0 1.1094,0.1727 1.4492,0.2777 5.0947,1.8715 7.7677,4.3505 8.0257,4.3505 0.218,0 0.243,-0.173 0.243,-0.278 0,-0.307 -1.111,-1.589 -2.254,-2.6228 -2.035,-1.8614 -4.7889,-3.8164 -7.5186,-3.8164 -1.1894,0 -3.698,2.6886 -3.8457,3.866 -1.6934,-1.5602 -4.5211,-3.6098 -5.8285,-3.6098 -1.584,0 -2.3949,1.9496 -2.3949,3.3387 0,1.7543 2.148,3.8163 4.0379,5.6853 -2.1711,-0.924 -4.6223,-3.013 -8.4969,-7.747 -0.2238,-0.2508 -0.6977,-1.3622 -1.0043,-1.3622 -0.5285,0 -2.3684,1.479 -2.3684,2.5059 0,0.1387 0.0844,0.3891 0.2504,0.6383 3.468,5.069 10.7285,11.77 15.168,15.758 -1.1277,-0.049 -2.1219,-0.076 -2.834,-0.076 -0.8637,0 -3.3965,-2.062 -5.2953,-3.902 -2.2289,-2.166 -7.8516,-7.657 -11.502,-12.3964 -2.1754,-2.8071 -1.8953,-3.7016 -2.314,-3.7016 -1.116,0 -3.0391,3.3168 -3.0391,3.9555 0,1.7575 5.043,6.6015 7.5793,9.0575 4.2617,4.118 6.7129,6.263 7.2145,6.653 0.2254,0.166 0.6707,0.477 0.6707,0.477 -5.9,1.034 -12.1508,2.834 -15.8981,1.796 -4.7176,-1.306 -7.1961,-11.446 -0.3676,-8.996 2.8868,1.033 5.5207,3.282 7.0996,5.239 0.6114,0.762 1.0012,0.382 0.3422,-0.651 -2.123,-3.322 -5.3886,-6.478 -11.7074,-6.696 -6,-0.203 -4.8398,9.308 2.3852,12.427 2.8765,1.24 7.2011,0.723 12.7156,0.723 12.9809,0 25.6262,0.788 26.1864,0.788 0.36,0 0.445,0.329 2.95,-1.677 0.362,-0.307 1.34,-0.889 1.34,-1.34 0,-0.334 -1.17,-0.583 -1.894,-0.668 z m -22.5676,-81.197 -11.4578,0 0,5.5782 2.334,0 -0.6195,2.1878 -8.2824,0 -0.5844,-2.1878 2.3344,0 0,-5.5782 -12.7235,0 0,5.6879 2.9153,0 6.764,19.9524 11.4836,0 6.7367,-19.9524 3.7985,0 0,14.1516 -2.6973,0 0,5.6902 19.76,0 c 2.184,0 3.609,-0.366 4.595,-1.3504 1.131,-1.1328 1.492,-2.5508 1.492,-5.7304 0,-4.5168 -1.203,-5.6172 -4.157,-6.2004 l 3.867,-6.5625 5.142,0 0,14.1515 -2.698,0 0,5.6903 17.402,0 c 3.681,0 5.654,-0.4723 7.185,-2.0078 1.746,-1.7508 2.662,-4.379 2.662,-10.7625 0,-6.3754 -0.916,-9.0036 -2.662,-10.7497 -1.531,-1.5339 -3.504,-2.0097 -7.185,-2.0097 l -25.286,0 -5.6565,9.6308 -4.2863,0 0,-3.941 2.7735,0 0,-5.6879 -12.9493,0 z m 81.9666,67.457 -75.492,42.664 c -2.0703,1.235 -5.4496,1.235 -7.5199,0 L 3.75898,102.339 C 1.69219,101.1 3.90625e-4,98.1215 3.90625e-4,95.7094 l 0,-62.3594 c 0,-2.4109 1.886719375,-4.943 4.195699375,-5.632 L 78.816,0.521875 c 2.3094,-0.695703 6.0836,-0.695703 8.3906,0 L 161.831,27.718 c 2.304,0.689 4.195,3.2211 4.195,5.632 l 0,62.3594 c -0.001,2.4105 -1.697,5.3906 -3.761,6.6296"
       style="fill:#263241;fill-opacity:1;fill-rule:nonzero;stroke:none"
       id="path4193" /><path
       d="m 168.677,30.175 c 0.073,-0.0148 0.166,-0.0219 0.266,-0.0219 0.231,0 0.388,0.086 0.388,0.3239 0,0.2152 -0.172,0.3011 -0.416,0.3011 -0.086,0 -0.158,-0.007 -0.238,-0.0211 l 0,-0.582 z m 0.36,-0.2078 c -0.043,-0.0082 -0.086,-0.0082 -0.122,-0.0082 -0.094,0 -0.187,0.0082 -0.238,0.0219 l 0,-0.5598 c -0.021,-0.0152 -0.05,-0.0223 -0.107,-0.0223 -0.058,0 -0.087,0.0071 -0.115,0.0223 l 0,1.5008 c 0.151,0.0363 0.308,0.05 0.474,0.05 0.395,0 0.632,-0.1719 0.632,-0.4879 0,-0.2371 -0.1,-0.3879 -0.295,-0.4668 l 0.381,-0.5891 c -0.021,-0.014 -0.064,-0.0293 -0.122,-0.0293 -0.071,0 -0.107,0.0071 -0.143,0.0223 l -0.345,0.5461 z m -0.072,1.4359 c -0.762,0 -1.257,-0.5461 -1.257,-1.2711 0,-0.7261 0.488,-1.2789 1.257,-1.2789 0.754,0 1.243,0.5379 1.243,1.2789 0,0.7328 -0.482,1.2711 -1.243,1.2711 z m -0.007,-2.7511 c -0.876,0 -1.466,0.6171 -1.466,1.48 0,0.8551 0.603,1.4719 1.473,1.4719 0.877,0 1.459,-0.6098 1.459,-1.4719 0,-0.848 -0.612,-1.48 -1.466,-1.48"
       style="fill:#263241;fill-opacity:1;fill-rule:nonzero;stroke:none"
       id="path4195" /></g></svg>