<?xml version="1.0" encoding="UTF-8" standalone="no"?>
<!-- Created with Inkscape (http://www.inkscape.org/) -->
<svg xmlns:dc="http://purl.org/dc/elements/1.1/" xmlns:cc="http://creativecommons.org/ns#" xmlns:rdf="http://www.w3.org/1999/02/22-rdf-syntax-ns#" xmlns:svg="http://www.w3.org/2000/svg" xmlns="http://www.w3.org/2000/svg" xmlns:sodipodi="http://sodipodi.sourceforge.net/DTD/sodipodi-0.dtd" xmlns:inkscape="http://www.inkscape.org/namespaces/inkscape" width="999.99994" height="470.83185" id="svg4800" version="1.1" inkscape:version="0.48.5 r10040" sodipodi:docname="New document 4">
  <defs id="defs4802">
    <clipPath clipPathUnits="userSpaceOnUse" id="clipPath4228">
      <path inkscape:connector-curvature="0" d="m 451.161,88.045 125.119,0 0,68.95 -125.119,0 0,-68.95 z" id="path4230"/>
    </clipPath>
    <clipPath clipPathUnits="userSpaceOnUse" id="clipPath4176">
      <path inkscape:connector-curvature="0" d="m 415.44,71.4 196.56,0 0,102.24 -196.56,0 0,-102.24 z" id="path4178"/>
    </clipPath>
  </defs>
  <sodipodi:namedview id="base" pagecolor="#ffffff" bordercolor="#666666" borderopacity="1.0" inkscape:pageopacity="0.0" inkscape:pageshadow="2" inkscape:zoom="0.57490234" inkscape:cx="765.36314" inkscape:cy="141.23005" inkscape:document-units="px" inkscape:current-layer="layer1" showgrid="false" fit-margin-left="0.5" fit-margin-bottom="0.5" fit-margin-top="0.5" fit-margin-right="0.5" inkscape:window-width="1053" inkscape:window-height="1038" inkscape:window-x="863" inkscape:window-y="-21" inkscape:window-maximized="0"/>
  <metadata id="metadata4805">
    <rdf:RDF>
      <cc:Work rdf:about="">
        <dc:format>image/svg+xml</dc:format>
        <dc:type rdf:resource="http://purl.org/dc/dcmitype/StillImage"/>
        <dc:title/>
      </cc:Work>
    </rdf:RDF>
  </metadata>
  <g inkscape:label="Layer 1" inkscape:groupmode="layer" id="layer1" transform="translate(-190.91195,48.262266)">
    <g id="g4172" transform="matrix(7.9844305,0,0,-7.9844305,-3410.8517,1205.7534)">
      <g id="g4174" clip-path="url(#clipPath4176)">
        <g id="g4180" transform="translate(504.9247,126.4289)">
          <path d="m 0,0 c 0,-1.206 0.506,-1.581 2.314,-1.581 1.81,0 2.641,0.552 3.822,2.991 l 0.427,0 -0.427,-3.824 -11.239,0 0,0.43 c 1.686,0.427 1.859,0.806 1.859,2.388 l 0,9.404 c 0,1.307 -0.325,1.684 -1.859,2.063 l 0,0.427 6.965,0 0,-0.427 C 0.404,11.492 0,11.191 0,9.907 L 0,0 z" style="fill:#4f4f57;fill-opacity:1;fill-rule:nonzero;stroke:none" id="path4182" inkscape:connector-curvature="0"/>
        </g>
        <g id="g4184" transform="translate(514.8075,139.7546)">
          <path d="m 0,0 c 0.904,0 1.634,-0.727 1.634,-1.631 0,-0.906 -0.73,-1.662 -1.634,-1.662 -0.904,0 -1.661,0.756 -1.661,1.662 C -1.661,-0.727 -0.904,0 0,0 m 1.409,-13.702 c 0,-0.954 0.477,-1.482 1.533,-1.608 l 0,-0.429 -5.96,0 0,0.429 c 1.281,0.251 1.584,0.605 1.584,1.809 l 0,5.055 c 0,1.158 -0.326,1.484 -1.711,1.76 l 0,0.43 4.125,0.349 0.429,0 0,-7.795 z" style="fill:#4f4f57;fill-opacity:1;fill-rule:nonzero;stroke:none" id="path4186" inkscape:connector-curvature="0"/>
        </g>
        <g id="g4188" transform="translate(522.4017,139.7546)">
          <path d="m 0,0 -0.429,0 -3.847,-0.274 0,-0.428 c 0.88,-0.151 1.433,-0.604 1.433,-1.409 l 0,-13.628 c 1.433,-0.276 2.843,-0.373 4.627,-0.373 4.628,0 6.386,2.41 6.386,5.328 0,2.765 -1.962,4.903 -4.525,4.903 C 2.288,-5.881 1.13,-6.433 0,-7.617 L 0,0 z m 0,-8.294 c 0.955,0.878 1.458,1.131 2.213,1.131 1.683,0 2.814,-1.61 2.814,-3.924 0,-3.094 -1.409,-4.349 -3.519,-4.349 -1.134,0 -1.508,0.501 -1.508,1.584 l 0,5.558 z" style="fill:#4f4f57;fill-opacity:1;fill-rule:nonzero;stroke:none" id="path4190" inkscape:connector-curvature="0"/>
        </g>
        <g id="g4192" transform="translate(541.9354,129.5984)">
          <path d="m 0,0 c -0.351,2.615 -2.285,4.275 -4.977,4.275 -2.992,0 -5.279,-2.238 -5.279,-5.179 0,-2.892 2.209,-5.053 5.179,-5.053 2.287,0 4.224,1.256 5.077,3.293 l -0.424,0 c -0.906,-1.383 -2.014,-2.062 -3.396,-2.062 -1.762,0 -3.519,1.61 -3.371,4.726 L 0,0 z m -7.191,0.579 c 0.077,1.811 0.853,3.017 2.014,3.017 1.153,0 2.01,-1.256 2.11,-3.017 l -4.124,0 z" style="fill:#4f4f57;fill-opacity:1;fill-rule:nonzero;stroke:none" id="path4194" inkscape:connector-curvature="0"/>
        </g>
        <g id="g4196" transform="translate(551.0406,130.2014)">
          <path d="m 0,0 c -0.831,0.804 -1.486,1.233 -2.139,1.233 -0.854,0 -1.382,-0.351 -2.111,-1.356 l 0,-3.875 c 0,-1.13 0.226,-1.481 1.606,-1.759 l 0,-0.43 -6.033,0 0,0.43 c 1.26,0.303 1.583,0.677 1.583,1.759 l 0,5.006 c 0,1.208 -0.525,1.758 -1.732,1.859 l 0,0.43 4.145,0.374 0.431,0 0,-3.016 0.05,0 c 0.931,2.063 1.959,3.016 3.142,3.016 0.627,0 1.232,-0.277 1.684,-0.804 L 0,0 z" style="fill:#4f4f57;fill-opacity:1;fill-rule:nonzero;stroke:none" id="path4198" inkscape:connector-curvature="0"/>
        </g>
        <g id="g4200" transform="translate(567.0526,133.4985)">
          <path d="m 0,0 0,-0.431 c 1.206,-0.25 1.484,-1.004 0.628,-3.016 l -1.307,-3.041 -2.012,4.149 c -0.581,1.207 -0.581,1.76 0.501,1.908 l 0,0.431 -5.484,0 -0.173,0 -2.745,0 0,3.668 -0.474,0 c -1.337,-1.709 -2.894,-3.219 -4.076,-3.947 l 0,-0.48 1.709,0 0,-6.083 c 0,-2.161 1.434,-3.015 3.219,-3.015 1.411,0 2.34,0.502 3.042,1.683 l -0.301,0.276 c -0.452,-0.527 -0.881,-0.753 -1.382,-0.753 -1.334,0 -1.737,0.903 -1.737,2.438 l 0,5.454 2.545,0 c 1.381,0 1.786,-0.502 2.389,-1.782 l 3.468,-7.316 c -1.156,-3.118 -2.159,-4.375 -3.918,-4.375 -0.383,0 -0.685,0.024 -1.286,0.223 l -0.577,-2.866 c 0.353,-0.05 0.554,-0.05 0.803,-0.05 1.965,0 3.044,0.831 4.048,3.143 l 4.778,10.914 c 0.78,1.758 1.081,2.109 2.287,2.437 L 3.945,0 0,0 z" style="fill:#4f4f57;fill-opacity:1;fill-rule:nonzero;stroke:none" id="path4202" inkscape:connector-curvature="0"/>
        </g>
        <g id="g4204" transform="translate(518.3962,106.9579)">
          <path d="m 0,0 c 0.173,-1.28 0.805,-2.013 2.238,-2.285 l 0,-0.427 -7.268,0 0,0.427 c 1.61,0.398 1.886,1.33 1.61,3.24 l -1.208,8.401 -0.049,0 -4.777,-12.068 -0.53,0 -4.727,12.068 -0.05,0 -1.283,-8.649 c -0.252,-1.712 0.076,-2.869 1.734,-2.992 l 0,-0.427 -5.328,0 0,0.427 c 1.582,0.07 2.261,0.98 2.613,3.24 l 1.46,9.605 c -0.58,0.604 -1.383,0.983 -2.137,1.01 l 0,0.424 5.304,0 3.848,-9.705 3.896,9.705 4.98,0 0,-0.424 C -1.183,11.292 -1.535,10.537 -1.335,9.179 L 0,0 z" style="fill:#4f4f57;fill-opacity:1;fill-rule:nonzero;stroke:none" id="path4206" inkscape:connector-curvature="0"/>
        </g>
        <g id="g4208" transform="translate(521.7877,111.6608)">
          <path d="m 0,0 c 0,1.056 -0.354,1.434 -1.484,1.633 l 0,0.432 3.897,0.376 0.428,0 0,-6.991 c 0,-1.133 0.728,-1.658 1.762,-1.658 0.954,0 1.533,0.4 2.361,1.71 l 0,4.725 c 0,0.778 -0.503,1.232 -1.483,1.406 l 0,0.432 3.896,0.376 0.429,0 0,-7.544 c 0,-1.257 0.254,-1.56 1.511,-1.885 l 0,-0.427 -4.353,-0.376 0,2.31 -0.05,0 C 5.86,-7.089 4.676,-7.791 3.142,-7.791 1.18,-7.791 0,-6.716 0,-4.9 L 0,0 z" style="fill:#4f4f57;fill-opacity:1;fill-rule:nonzero;stroke:none" id="path4210" inkscape:connector-curvature="0"/>
        </g>
        <g id="g4212" transform="translate(535.2904,112.969)">
          <path d="m 0,0 -1.71,0 0,0.477 c 1.18,0.73 2.74,2.239 4.071,3.948 l 0.481,0 0,-3.668 3.118,0 0,-0.757 -3.118,0 0,-5.457 c 0,-1.535 0.4,-2.441 1.735,-2.441 0.499,0 0.928,0.23 1.383,0.757 L 6.257,-7.419 C 5.556,-8.599 4.625,-9.1 3.216,-9.1 1.431,-9.1 0,-8.248 0,-6.083 L 0,0 z" style="fill:#4f4f57;fill-opacity:1;fill-rule:nonzero;stroke:none" id="path4214" inkscape:connector-curvature="0"/>
        </g>
        <g id="g4216" transform="translate(543.0839,111.6608)">
          <path d="m 0,0 c 0,1.056 -0.355,1.434 -1.483,1.633 l 0,0.432 3.896,0.376 0.431,0 0,-6.991 c 0,-1.133 0.726,-1.658 1.755,-1.658 0.957,0 1.537,0.4 2.364,1.71 l 0,4.725 c 0,0.778 -0.501,1.232 -1.482,1.406 l 0,0.432 3.897,0.376 0.426,0 0,-7.544 c 0,-1.257 0.254,-1.56 1.508,-1.885 l 0,-0.427 -4.349,-0.376 0,2.31 -0.049,0 C 5.857,-7.089 4.678,-7.791 3.142,-7.791 1.18,-7.791 0,-6.716 0,-4.9 L 0,0 z" style="fill:#4f4f57;fill-opacity:1;fill-rule:nonzero;stroke:none" id="path4218" inkscape:connector-curvature="0"/>
        </g>
        <g id="g4220" transform="translate(563.7498,110.5552)">
          <path d="m 0,0 c 0,2.616 -2.137,3.547 -4.173,3.547 -2.214,0 -3.746,-1.184 -4.249,-3.219 l 0.379,0 c 0.602,1.055 1.556,1.583 2.84,1.583 1.71,0 2.365,-0.805 2.365,-2.49 -2.316,-0.852 -6.086,-1.058 -6.086,-3.619 0,-1.384 1.282,-2.489 2.842,-2.489 1.155,0 2.035,0.277 2.991,1.13 l 0.226,0.199 c 0.477,-0.951 1.133,-1.329 2.288,-1.329 1.383,0 2.212,0.654 2.312,1.834 l -0.402,0 C 1.233,-5.432 0.979,-5.733 0.581,-5.733 0.153,-5.733 0,-5.358 0,-4.48 L 0,0 z m -2.865,-4.676 c -0.653,-0.655 -1.207,-0.981 -1.785,-0.981 -0.779,0 -1.308,0.679 -1.308,1.708 0,1.283 0.727,1.859 3.093,2.87 l 0,-3.597 z" style="fill:#4f4f57;fill-opacity:1;fill-rule:nonzero;stroke:none" id="path4222" inkscape:connector-curvature="0"/>
        </g>
      </g>
    </g>
    <g id="g4224" transform="matrix(7.9844305,0,0,-7.9844305,-3410.8517,1205.7534)">
      <g id="g4226" clip-path="url(#clipPath4228)">
        <g id="g4232" transform="translate(567.4483,117.3943)">
          <path d="m 0,0 c 0,1.332 -0.429,1.807 -1.786,1.887 l 0,0.424 4.197,0.279 0.431,0 0,-13.427 c 0,-1.257 0.276,-1.559 1.679,-1.884 l 0,-0.427 -6.307,0 0,0.427 C -0.401,-12.496 0,-12.045 0,-10.837 L 0,0 z" style="fill:#4f4f57;fill-opacity:1;fill-rule:nonzero;stroke:none" id="path4234" inkscape:connector-curvature="0"/>
        </g>
        <g id="g4236" transform="translate(495.3635,132.1385)">
          <path d="m 0,0 c -0.143,0.19 -0.5,0.035 -0.5,0.035 l -5.671,-2.102 c -0.44,1.071 -0.946,2.083 -1.526,3.02 l 1.838,5.013 c 0,0 0.229,0.5 0.019,0.622 C -6.055,6.714 -6.398,6.38 -6.398,6.38 L -9.735,3.644 c -1.301,1.394 -2.829,2.518 -4.586,3.313 -0.651,0.292 -1.333,0.536 -2.044,0.736 l -1.035,3.966 c 0,0 -0.089,0.397 -0.357,0.397 -0.264,0 -0.336,-0.374 -0.336,-0.374 l -0.663,-3.505 c -0.725,0.092 -1.472,0.145 -2.247,0.145 -2.489,0 -4.699,-0.473 -6.636,-1.341 -0.828,-0.372 -1.609,-0.818 -2.337,-1.328 -0.121,-0.086 -0.235,-0.178 -0.355,-0.267 -0.688,1.774 -1.231,3.219 -1.332,3.655 0.383,0.348 1.186,1.611 1.382,2.465 0.273,1.191 0.19,1.757 -0.099,2.661 -0.206,0.66 -0.625,1.278 -0.597,1.695 0.023,0.314 0.187,0.535 0.326,0.677 -0.075,0.436 -0.359,0.632 -0.698,0.674 -0.314,0.041 -0.557,-0.049 -0.833,-0.062 -0.072,0.127 -0.211,0.103 -0.106,0.557 0.159,0.685 1.473,1.008 2.546,1.424 1.361,0.527 2.121,1.507 2.169,3.081 0.032,1.143 -0.605,1.991 -1.404,2.372 -0.16,-0.461 -0.823,-1.083 -1.284,-1.335 -0.455,-0.253 -1.085,-0.345 -1.54,-0.242 0.1,0.841 -0.29,1.56 -0.904,1.849 -0.195,-0.357 -0.935,-0.854 -2.046,-0.818 -1.111,0.033 -1.182,0.295 -2.744,0.291 -2.221,-0.004 -4.061,-1.341 -4.287,-3.311 -0.148,-1.279 0.346,-2.35 0.716,-2.908 -0.277,-0.207 -0.926,-0.833 -1.043,-1.017 -0.159,0.184 -0.601,0.435 -1.132,0.088 0.115,-0.279 0.136,-0.619 0.047,-0.943 -0.092,-0.324 -0.903,-1.897 -0.995,-3.17 -0.158,-2.151 1.084,-3.608 2.126,-4.025 -0.228,-0.347 -0.275,-0.717 -0.114,-1.018 0.107,-0.201 0.323,-0.397 0.764,-0.397 -0.253,-0.275 -0.351,-0.695 -0.186,-1.108 0.186,-0.462 0.717,-1.134 1.18,-1.134 -0.023,-0.393 0.164,-1.317 0.255,-1.687 -0.161,-0.303 -0.325,-0.53 -0.301,-1.086 0.023,-0.575 0.395,-1.043 0.855,-1.134 0.116,-0.281 0.204,-0.585 0.366,-0.77 0.162,-0.188 0.304,-0.412 0.653,-0.642 0.348,-0.231 0.741,-0.419 1.205,-0.419 0.462,0 0.869,-0.021 1.077,0.047 0.011,-0.131 0.054,-1.356 0.107,-2.716 -1.165,-3.239 -1.744,-6.992 -1.744,-11.019 l 0,-0.002 c 0,-7.219 2.059,-13.653 5.989,-17.796 0,0 0.227,-0.277 0.858,-0.687 0,0 1.229,2.104 3.101,4.492 0.473,0.608 1.017,1.192 1.614,1.757 0.922,0.8 1.814,1.515 2.685,2.143 2.417,1.65 5.216,2.902 7.803,3.44 -2.966,-1.532 -4.648,-2.349 -7.436,-4.74 -1.768,-1.514 -4.579,-4.188 -6.502,-7.847 0.399,-0.318 0.939,-0.644 1.575,-0.708 0.407,0.478 2.499,4.312 5.706,7.395 6.495,6.081 14.145,7.486 18.149,7.409 0.225,1.651 0.342,3.369 0.342,5.144 0,2.904 -0.304,5.666 -0.909,8.196 l 4.782,5.321 c 0,0 0.33,0.333 0.189,0.522" style="fill:#173a79;fill-opacity:1;fill-rule:nonzero;stroke:none" id="path4238" inkscape:connector-curvature="0"/>
        </g>
      </g>
    </g>
    <g id="g4248" transform="matrix(7.9844305,0,0,-7.9844305,260.41026,131.50415)">
      <path d="M 0,0 C -0.28,0.159 -1.04,0.531 -1.644,0.508 -2.266,0.484 -2.793,0.357 -3.285,0.044 -3.493,0.184 -3.556,0.463 -3.424,0.785 -3.291,1.109 -3.1,1.158 -3.1,1.158 l -0.175,3.027 c 0,0 0.852,0.61 1.081,0.676 0.231,0.072 0.337,0.251 0.337,0.482 C -1.48,5.088 -0.923,4.518 -0.624,4.093 -0.347,3.7 -0.184,3.261 -0.161,2.775 -0.139,2.289 -0.134,1.71 -0.232,1.109 -0.043,0.947 0.139,0.809 0.161,0.554 0.185,0.297 0.091,0.205 0,0" style="fill:#ffffff;fill-opacity:1;fill-rule:nonzero;stroke:none" id="path4250" inkscape:connector-curvature="0"/>
    </g>
    <g id="g4252" transform="matrix(7.9844305,0,0,-7.9844305,480.98251,206.87398)">
      <path d="M 0,0 C -0.034,0.59 -0.72,2.188 -1.136,2.536 L 6.062,5.726 0,0 z" style="fill:#ffffff;fill-opacity:1;fill-rule:nonzero;stroke:none" id="path4254" inkscape:connector-curvature="0"/>
    </g>
    <g id="g4256" transform="matrix(7.9844305,0,0,-7.9844305,323.35465,111.67319)">
      <path d="M 0,0 6.091,-5.526 C 5.502,-5.855 4.622,-6.747 4.378,-7.473 L 0,0 z" style="fill:#ffffff;fill-opacity:1;fill-rule:nonzero;stroke:none" id="path4258" inkscape:connector-curvature="0"/>
    </g>
    <g id="g4260" transform="matrix(7.9844305,0,0,-7.9844305,351.81921,199.08514)">
      <path d="m 0,0 c -0.21,-0.322 -0.284,-0.519 -0.354,-0.91 -0.07,-0.396 -0.018,-0.614 0.029,-0.937 l -1.867,1.288 c 0.021,0.438 -0.094,1.155 -0.123,1.527 -0.004,0.038 -0.017,0.108 -0.026,0.162 L 0,0 z" style="fill:#ffffff;fill-opacity:1;fill-rule:nonzero;stroke:none" id="path4262" inkscape:connector-curvature="0"/>
    </g>
    <g id="g4264" transform="matrix(7.9844305,0,0,-7.9844305,269.64422,203.36958)">
      <path d="m 0,0 c -0.118,0.208 -0.65,11.452 -0.67,11.846 l 0.601,0.437 0,0.116 c -0.44,0.024 -0.948,0.185 -1.11,0.443 l -0.162,3.444 c -0.602,0.048 -1.222,0.239 -1.454,0.468 -0.288,0.289 -0.511,0.645 -0.187,1.269 0.3,-0.21 1.178,-0.464 1.941,-0.464 0.162,0 0.5,-0.364 0.695,-0.442 0.222,-0.085 0.593,-0.29 0.768,-0.369 C 0.578,16.681 0.677,16.311 0.721,16.172 0.768,16.031 6.339,1.574 6.431,1.411 6.526,1.251 6.85,-1.18 6.871,-1.363 6.895,-1.549 7.728,-3.491 7.889,-3.677 7.149,-3.656 5.936,-4.079 4.943,-5.055 3.969,-6.003 3.11,-8.089 2.915,-9.049 2.845,-8.542 0.116,-0.208 0,0" style="fill:#ffffff;fill-opacity:1;fill-rule:nonzero;stroke:none" id="path4266" inkscape:connector-curvature="0"/>
    </g>
    <g id="g4268" transform="matrix(7.9844305,0,0,-7.9844305,326.16198,313.81342)">
      <path d="m 0,0 c -0.241,-2.224 -0.782,-4.151 -1.596,-5.527 -0.523,-0.89 -1.993,-2.686 -2.505,-3.365 0.556,1.11 0.985,3.789 0.95,5.871 -0.024,1.352 -0.435,4.338 -0.077,6.315 0.388,2.122 0.99,3.313 2.409,4.625 0.725,0.666 2.209,1.517 4.326,0.943 L 5.22,5.639 C 4.304,5.813 3.092,5.657 2.285,5.037 0.764,3.87 0.253,2.297 0,0" style="fill:#ffffff;fill-opacity:1;fill-rule:nonzero;stroke:none" id="path4270" inkscape:connector-curvature="0"/>
    </g>
    <g id="g4272" transform="matrix(7.9844305,0,0,-7.9844305,327.50336,348.78606)">
      <path d="M 0,0 C 0.417,0.937 0.964,3.61 1.117,4.504 1.315,5.651 1.499,7.324 2.864,8.454 3.536,9.007 4.64,9.081 5.08,8.949 L 7.016,5.002 C 7.19,4.587 7.76,4.44 8.141,4.463 6.324,3.874 1.747,1.697 0,0" style="fill:#ffffff;fill-opacity:1;fill-rule:nonzero;stroke:none" id="path4274" inkscape:connector-curvature="0"/>
    </g>
    <g id="g4276" transform="matrix(7.9844305,0,0,-7.9844305,459.11393,248.18862)">
      <path d="m 0,0 c -0.312,-0.487 -0.201,-0.955 -0.028,-1.282 0.197,-0.368 1.223,-2.261 1.223,-2.261 0.321,-0.859 0.575,-1.291 0.882,-1.845 0.556,0 1.157,0.013 1.792,0 -0.677,1.515 -2.225,4.447 -2.225,4.447 L 1.533,1.429 C 1.083,1.156 0.311,0.483 0,0" style="fill:#ffffff;fill-opacity:1;fill-rule:nonzero;stroke:none" id="path4278" inkscape:connector-curvature="0"/>
    </g>
    <g id="g4280" transform="matrix(7.9844305,0,0,-7.9844305,393.16336,147.91937)">
      <path d="M 0,0 C 0.764,0.138 2.493,-0.02 3.046,-0.299 L 1.292,9.64 0,0 z" style="fill:#ffffff;fill-opacity:1;fill-rule:nonzero;stroke:none" id="path4282" inkscape:connector-curvature="0"/>
    </g>
    <g id="g4284" transform="matrix(7.9844305,0,0,-7.9844305,275.40419,74.240647)">
      <path d="m 0,0 c -0.045,0.139 -0.142,0.509 -0.3,0.576 -0.175,0.079 -0.545,0.286 -0.767,0.372 -0.192,0.077 -0.533,0.439 -0.695,0.439 -0.763,0 -1.642,0.254 -1.942,0.463 -0.324,-0.623 -0.1,-0.98 0.187,-1.269 0.233,-0.229 0.853,-0.421 1.454,-0.467 l 0.162,-3.445 c 0.162,-0.257 0.67,-0.419 1.111,-0.44 l 0,-0.117 -0.602,-0.438 c 0.02,-0.394 0.553,-11.639 0.671,-11.847 0.116,-0.207 2.845,-8.542 2.914,-9.048 0.196,0.96 1.055,3.05 2.028,3.997 0.994,0.973 2.207,1.395 2.947,1.375 -0.161,0.186 -0.995,2.127 -1.019,2.313 -0.021,0.183 -0.344,2.615 -0.438,2.775 C 5.618,-14.598 0.046,-0.141 0,0" style="fill:#ffffff;fill-opacity:1;fill-rule:nonzero;stroke:none" id="path4286" inkscape:connector-curvature="0"/>
    </g>
    <g id="g4288" transform="matrix(7.9844305,0,0,-7.9844305,247.00593,52.225975)">
      <path d="M 0,0 C 1.574,-0.004 2.318,-0.658 2.688,-1.006 2.733,-0.473 2.65,-0.004 2.154,0.398 1.744,0.731 1.021,1.026 -0.088,1.026 -0.83,1.026 -1.573,0.808 -2.037,0.414 -2.46,0.054 -2.531,-0.35 -2.438,-0.955 -2.3,-0.516 -1.298,0.005 0,0" style="fill:#ffffff;fill-opacity:1;fill-rule:nonzero;stroke:none" id="path4290" inkscape:connector-curvature="0"/>
    </g>
    <g id="g4292" transform="matrix(7.9844305,0,0,-7.9844305,224.50907,-13.679941)">
      <path d="m 0,0 c -0.037,-0.602 0.124,-1.228 0.402,-1.599 0.158,-0.208 0.534,-0.616 0.81,-0.599 0.393,0.023 0.763,0.776 1.69,0.741 0.599,-0.024 0.992,-0.871 1.502,-0.901 0.394,-0.027 0.599,0.367 0.999,0.409 0.34,0.036 0.459,-0.134 0.667,-0.341 0.139,0.323 0.34,0.543 0.857,0.924 0.622,0.464 2.75,0.903 3.656,1.713 0.451,0.404 0.553,1.153 0.41,1.657 C 10.65,1.522 9.702,1.017 8.777,0.973 8.314,0.949 7.202,1.152 6.81,1.361 7.008,1.701 7.073,2.083 6.909,2.453 6.607,2.224 5.307,2.098 4.798,2.098 4.29,2.098 3.296,2.303 2.525,2.262 0.838,2.17 0.056,0.973 0,0" style="fill:#ffffff;fill-opacity:1;fill-rule:nonzero;stroke:none" id="path4294" inkscape:connector-curvature="0"/>
    </g>
    <g id="g4296" transform="matrix(7.9844305,0,0,-7.9844305,247.77487,28.255118)">
      <path d="M 0,0 C 3.656,-0.07 5.305,-1.758 5.354,-3.145 5.539,-2.73 5.515,-2.338 5.49,-1.872 5.471,-1.505 4.915,-0.461 4.89,-0.116 4.868,0.232 4.961,0.465 5.029,0.786 4.798,0.742 3.988,0.419 3.641,0.695 3.27,0.993 3.527,1.736 3.039,1.918 2.554,2.107 1.792,1.526 1.304,1.597 0.82,1.668 0.403,2.336 -0.105,2.336 -0.617,2.336 -0.871,1.713 -1.495,1.573 -1.977,1.464 -2.56,1.756 -2.845,1.736 -3.161,1.713 -3.348,1.467 -3.488,1.165 -3.628,0.866 -3.739,0.742 -4.108,0.648 -4.402,0.575 -4.826,0.832 -5.034,0.786 c 0.161,-0.161 0.242,-0.818 0.096,-1.203 -0.183,-0.485 -0.58,-0.995 -0.628,-1.601 -0.039,-0.535 0.137,-0.781 0.278,-1.173 C -5.382,-1.225 -3.191,0.06 0,0" style="fill:#ffffff;fill-opacity:1;fill-rule:nonzero;stroke:none" id="path4298" inkscape:connector-curvature="0"/>
    </g>
    <g id="g4300" transform="matrix(7.9844305,0,0,-7.9844305,229.38429,84.213967)">
      <path d="m 0,0 c -0.253,-0.047 -0.788,-0.464 -1.045,-0.897 0.072,-0.281 0.375,-0.933 0.669,-1.112 0.069,0.301 0.398,0.805 0.563,0.92 0.23,0.164 0.459,0.278 0.645,0.368 0.185,0.094 0.255,0.187 0.255,0.395 0,0.21 -0.027,0.308 -0.121,0.516 C 1.15,0.211 1.493,0.183 1.611,0.348 1.725,0.507 1.782,0.717 1.782,0.923 1.782,1.134 1.686,1.18 1.481,1.202 1.272,1.226 0.665,1.24 0.366,1.217 c 0,0 0.466,0.24 0.606,0.307 C 1.11,1.594 1.156,1.734 1.179,1.85 1.204,1.965 1.199,2.224 1.133,2.542 0.439,2.521 -0.788,1.896 -1.112,1.62 l 0.254,-0.63 -0.46,0.021 C -1.389,0.694 -1.342,0.208 -1.203,-0.071 -0.788,0 -0.303,0.022 0,0" style="fill:#ffffff;fill-opacity:1;fill-rule:nonzero;stroke:none" id="path4302" inkscape:connector-curvature="0"/>
    </g>
    <g id="g4304" transform="matrix(7.9844305,0,0,-7.9844305,441.43965,196.12132)">
      <path d="m 0,0 c -0.764,0.494 -2.257,1.221 -2.705,1.361 l 0.656,1.7 C -1.491,2.782 0.553,1.536 0.867,1.221 L 0,0 z m -3.609,1.635 c -0.556,0.386 -2.394,0.315 -3.158,0.14 l -0.555,1.6 c 0.417,0.311 1.216,0.521 1.942,0.521 0.73,0 1.526,-0.176 2.083,-0.454 L -3.609,1.635 z M -9.094,0.456 c -0.311,1.048 0.523,2.085 0.905,2.465 L -7.602,1.569 C -8.048,1.325 -8.743,0.795 -9.094,0.456 m 1.809,-2.74 c 0,0 0.76,0.437 1.478,0.592 1.059,0.227 2.232,-0.408 3.065,-1.063 L -2.9,-3.006 -4.094,-3.286 c -0.231,0.203 -0.671,0.297 -1.147,0.272 -0.423,-0.016 -0.762,-0.174 -0.762,-0.174 l 0.235,-0.381 -0.548,-0.138 c -0.243,0.312 -0.626,0.693 -0.969,0.798 l 0,0.625 z M 3.365,-0.48 C 3.28,-0.031 2.154,1.315 0.23,2.769 -1.267,3.91 -3.467,5.031 -5.275,5.023 -8.329,5.005 -9.591,2.906 -9.821,1.812 -9.959,1.149 -9.927,0.435 -9.787,0.041 c -0.484,-0.415 -0.67,-0.751 -0.762,-1.226 -0.066,-0.34 0,-0.833 0.311,-1.133 -0.033,0.451 0.272,0.973 0.521,1.317 0.279,0.382 0.74,0.532 1.159,0.787 l 0.07,-0.836 c -0.396,-0.228 -0.885,-0.712 -0.917,-0.968 l 0.032,-1.377 1.051,0.631 0.203,-0.424 -0.383,-2.429 0.59,0.105 1.077,-0.441 -1.041,-0.876 0,-0.347 c 0,0 0.156,0.213 0.522,0.2 0.368,-0.019 1.314,-0.442 1.314,-0.442 l -0.035,-0.212 -0.415,0 -1.422,0 c -0.069,-0.242 0.146,-0.427 0.285,-0.531 0.24,0.069 0.493,0.194 0.63,0.194 0.139,0 0.459,-0.084 0.737,-0.118 l -0.333,-0.447 c 0,0 -0.173,-0.129 -0.487,-0.067 -0.174,0.036 -0.345,-0.207 -0.345,-0.406 0,-0.211 0.133,-0.731 0.133,-0.731 0.17,-0.779 0.97,-0.624 1.073,-0.615 0.506,0.045 2.157,0.638 2.157,0.638 l -1.588,-2.225 0.693,-2.382 c 1.05,0.432 4.181,1.545 7.578,2.104 -0.37,0.614 -0.431,0.86 -0.886,1.777 L 0,-6.448 0.242,-5.856 c 0.384,-0.14 0.972,0.136 1.355,0.449 0.38,0.315 0.831,0.866 1.005,1.214 -0.242,0.139 -0.448,0.107 -0.66,-0.035 -0.207,-0.14 -0.368,-0.404 -0.657,-0.276 -0.317,0.136 -0.161,0.48 -0.128,0.792 0.036,0.311 -0.361,0.317 -0.637,0.075 -0.278,-0.245 -0.869,-0.137 -1.25,0.242 -0.38,0.381 -2.218,1.91 -2.879,2.291 -0.95,0.544 -2.221,0.682 -3.158,0.514 -0.548,-0.098 -0.937,-0.34 -1.145,-0.234 l -0.687,1.061 0.111,0.068 c 0.241,-0.104 0.471,-0.3 0.784,-0.194 0.312,0.105 1.317,0.333 2.222,0.345 1.388,0.024 3.075,-0.483 3.818,-0.799 0.033,-0.899 1.848,-2.046 2.67,-2.147 0.691,-0.088 1.112,0.101 1.527,0.345 L 0.764,-0.59 1.7,0.596 c 0,0 1.492,-1.42 1.702,-1.7 0.067,0.161 0,0.433 -0.037,0.624" style="fill:#ffffff;fill-opacity:1;fill-rule:nonzero;stroke:none" id="path4306" inkscape:connector-curvature="0"/>
    </g>
    <g id="g4308" transform="matrix(7.9844305,0,0,-7.9844305,439.5513,160.02933)">
      <path d="M 0,0 C 0.686,-0.246 2.138,-1.464 2.485,-1.746 L 6.164,6.095 0,0 z" style="fill:#ffffff;fill-opacity:1;fill-rule:nonzero;stroke:none" id="path4310" inkscape:connector-curvature="0"/>
    </g>
    <g id="g4312" transform="matrix(7.9844305,0,0,-7.9844305,1174.8183,359.33266)">
      <path d="m 0,0 0.318,0 c 0.215,0 0.391,0.027 0.391,0.273 0,0.217 -0.206,0.252 -0.387,0.252 L 0,0.525 0,0 z m -0.342,0.788 0.699,0 c 0.452,0 0.695,-0.153 0.695,-0.541 0,-0.333 -0.207,-0.471 -0.463,-0.496 l 0.496,-0.806 -0.372,0 -0.46,0.795 -0.253,0 0,-0.795 -0.342,0 0,1.843 z M 0.3,-1.431 c 0.69,0 1.256,0.546 1.256,1.328 0,0.779 -0.566,1.327 -1.256,1.327 -0.698,0 -1.255,-0.548 -1.255,-1.327 0,-0.782 0.557,-1.328 1.255,-1.328 m 0,3.025 c 0.873,0 1.653,-0.684 1.653,-1.697 0,-1.016 -0.78,-1.7 -1.653,-1.7 -0.872,0 -1.652,0.684 -1.652,1.7 0,1.013 0.78,1.697 1.652,1.697" style="fill:#4f4f57;fill-opacity:1;fill-rule:nonzero;stroke:none" id="path4314" inkscape:connector-curvature="0"/>
    </g>
  </g>
</svg>